<svg width="113" height="91" viewBox="0 0 113 91" fill="none" xmlns="http://www.w3.org/2000/svg">
<path d="M41.9545 81.313C43.837 86.1894 47.0875 87.5456 53.4378 88.862C48.7692 87.4459 51.1286 85.1324 41.9545 81.313Z" fill="black"/>
<path d="M35.1649 79.3884C36.1814 83.9856 39.3566 85.7806 45.5814 87.4359C41.2893 85.8902 44.4394 84.544 35.1649 79.3884Z" fill="black"/>
<path d="M28.7769 76.9153C28.8648 81.5723 32.5419 83.7163 37.8632 85.5013C35.1352 82.4465 32.0963 79.5749 28.7769 76.9153V76.9153Z" fill="black"/>
<path d="M30.4963 82.9584C27.6348 81.2931 28.8899 79.0792 23.0541 73.8039C22.025 78.1817 25.6394 80.7944 30.4963 82.9584Z" fill="black"/>
<path d="M23.6314 79.7274C21.4477 78.0421 22.3764 75.4194 18.147 70.0743C16.1264 73.9236 19.3142 77.2244 23.6314 79.7274Z" fill="black"/>
<path d="M17.5069 75.7385C15.8754 73.9037 17.3312 72.4677 14.2314 65.7663C12.3865 67.8206 12.2987 71.4804 17.5069 75.7385Z" fill="black"/>
<path d="M12.4242 71.0117C12.3343 67.6282 11.9949 64.2518 11.4076 60.8999C8.00654 63.4329 9.83885 67.9403 12.4242 71.0117Z" fill="black"/>
<path d="M9.7008 55.6645C5.93578 57.5193 6.86449 62.5154 8.5964 65.6367C8.01909 63.8716 10.1903 61.6678 9.7008 55.6645Z" fill="black"/>
<path d="M9.06074 50.1898C5.98598 51.187 4.86902 55.6845 6.12403 59.8728C7.47627 56.7239 8.45935 53.4824 9.06074 50.1898V50.1898Z" fill="black"/>
<path d="M9.4247 44.6153C6.77663 45.0641 4.40467 49.6014 4.98197 53.8595C6.94579 50.9387 8.43846 47.8328 9.4247 44.6153V44.6153Z" fill="black"/>
<path d="M10.7676 39.4497C9.28665 39.3201 5.53418 41.7034 5.04472 47.7765C7.36747 45.1942 9.28901 42.3983 10.7676 39.4497V39.4497Z" fill="black"/>
<path d="M12.3865 36.0293C12.5748 35.7999 12.763 35.5905 12.9136 35.401L13.3027 34.9024C13.516 34.6232 13.629 34.4536 13.629 34.4536C13.3762 34.3881 13.1037 34.3881 12.8509 34.4536C12.4858 34.542 12.1359 34.6659 11.8092 34.8226C8.83991 36.4741 6.79283 38.9765 6.09893 41.8032C8.38285 40.0131 10.4853 38.0824 12.3865 36.0293V36.0293Z" fill="black"/>
<path d="M38.2522 90.4575L38.9927 90.6071C39.2697 90.6626 39.5504 90.7059 39.8335 90.7367C40.1598 90.7367 40.5238 90.8265 40.9128 90.8564H41.5278H41.8541H42.1929C47.213 90.9561 49.3088 89.1611 53.3499 89.1511C48.2931 88.029 42.8866 88.4968 38.2522 90.4575V90.4575Z" fill="black"/>
<path d="M45.4308 87.8149C37.1729 85.2819 31.7136 87.8149 30.2955 87.8149C36.7462 90.0985 41.4399 87.5755 45.4308 87.8149Z" fill="black"/>
<path d="M37.6749 85.8902C30.2955 83.098 26.2418 84.4443 22.6901 84.5041C29.0404 87.5157 33.9099 85.4016 37.6749 85.8902Z" fill="black"/>
<path d="M30.2453 83.3573C23.4933 79.9967 18.7494 80.7546 15.7499 80.3058C21.3598 84.1152 27.0324 82.6293 30.2453 83.3573Z" fill="black"/>
<path d="M23.2925 80.1163C17.5697 76.4266 13.7545 76.3269 9.7761 75.2399C14.4573 79.9069 20.4939 79.149 23.2925 80.1163Z" fill="black"/>
<path d="M5.10748 69.4261C8.25754 74.6217 14.9091 74.9707 17.0677 76.1075C12.5748 71.989 8.44579 71.0117 5.10748 69.4261Z" fill="black"/>
<path d="M1.95741 63.1038C4.17877 68.9973 10.1024 69.9946 11.872 71.3308C8.10694 66.624 5.50908 65.5769 1.95741 63.1038Z" fill="black"/>
<path d="M7.94379 65.9458C6.87703 63.6423 4.83137 60.6506 0.325897 56.5919C1.1542 62.5952 6.92723 64.7492 7.94379 65.9458Z" fill="black"/>
<path d="M5.39613 60.0323C4.43118 56.4426 2.60769 53.0336 0.0246979 49.9903C-0.389454 56.0634 4.53017 58.5963 5.39613 60.0323Z" fill="black"/>
<path d="M4.19132 53.9792C3.86248 50.3764 2.7721 46.8433 0.965957 43.5283C-0.615352 49.5815 3.67677 52.5233 4.19132 53.9792Z" fill="black"/>
<path d="M4.20387 47.7765C4.63058 44.2065 3.36302 37.5051 3.23752 37.0763C0.0247021 42.8004 3.99052 46.4303 4.20387 47.7765Z" fill="black"/>
<path d="M6.66369 31.831C2.64767 37.2459 5.23298 40.3273 5.24553 41.6735C5.24553 41.5838 7.45434 34.0348 7.09039 31.2825C6.93585 31.4591 6.79341 31.6422 6.66369 31.831Z" fill="black"/>
<path d="M7.95634 36.3384C12.6375 33.2071 14.6204 28.4504 17.0802 25C13.7168 26.8449 7.30374 32.529 7.95634 36.3384Z" fill="black"/>
<path d="M59.5622 88.8819C65.9125 87.5656 69.163 86.2094 71.0455 81.3329C61.8714 85.1324 64.2308 87.4459 59.5622 88.8819Z" fill="black"/>
<path d="M67.4437 87.4359C73.7187 85.7806 76.8437 83.9856 77.8602 79.3884C68.5606 84.544 71.7107 85.8902 67.4437 87.4359Z" fill="black"/>
<path d="M75.1368 85.4914C80.5083 83.7063 84.1101 81.5623 84.2231 76.9153C80.9043 79.5717 77.8653 82.44 75.1368 85.4914V85.4914Z" fill="black"/>
<path d="M82.5037 82.9584C87.3606 80.7944 90.975 78.1817 89.9459 73.8039C84.1101 79.0792 85.3652 81.2931 82.5037 82.9584Z" fill="black"/>
<path d="M94.853 70.0743C90.6864 75.4194 91.5523 78.0521 89.3686 79.7274C93.6859 77.2244 96.8736 73.9236 94.853 70.0743Z" fill="black"/>
<path d="M98.7686 65.7464C95.6688 72.4677 97.1246 73.9037 95.493 75.7186C100.701 71.4804 100.613 67.8206 98.7686 65.7464Z" fill="black"/>
<path d="M101.592 60.8999C101.005 64.2518 100.666 67.6282 100.576 71.0117C103.161 67.9403 104.993 63.4329 101.592 60.8999Z" fill="black"/>
<path d="M103.299 55.6645C102.81 61.6478 104.981 63.8716 104.416 65.6367C106.136 62.5154 107.039 57.5193 103.299 55.6645Z" fill="black"/>
<path d="M103.939 50.1898C104.541 53.4824 105.524 56.7239 106.876 59.8728C108.131 55.6845 107.014 51.167 103.939 50.1898Z" fill="black"/>
<path d="M103.575 44.6153C104.562 47.8328 106.054 50.9387 108.018 53.8595C108.57 49.6114 106.223 45.0641 103.575 44.6153Z" fill="black"/>
<path d="M102.232 39.4497C103.711 42.3983 105.633 45.1942 107.955 47.7765C107.466 41.7034 103.713 39.3201 102.232 39.4497Z" fill="black"/>
<path d="M101.191 34.8326C100.864 34.6759 100.514 34.5519 100.149 34.4636C99.8963 34.3981 99.6239 34.3981 99.371 34.4636C99.371 34.4636 99.484 34.6331 99.6973 34.9124L100.086 35.411C100.237 35.6004 100.425 35.8099 100.613 36.0392C102.511 38.092 104.609 40.0227 106.889 41.8131C106.198 38.9881 104.155 36.4858 101.191 34.8326Z" fill="black"/>
<path d="M71.1459 90.9262H71.4722H72.0872C72.4762 90.9262 72.8402 90.8464 73.1665 90.8065C73.4496 90.7757 73.7303 90.7324 74.0073 90.6769L74.7478 90.5273C70.1123 88.5979 64.7218 88.1553 59.6877 89.2908C63.7288 89.2908 65.8624 91.0957 70.8447 90.996L71.1459 90.9262Z" fill="black"/>
<path d="M82.7045 87.8847C81.2864 87.8847 75.8271 85.3119 67.5692 87.8847C71.5601 87.5755 76.2538 90.0985 82.7045 87.8847Z" fill="black"/>
<path d="M75.3251 85.8902C79.1529 85.4016 83.9721 87.5157 90.3099 84.5041C86.7457 84.4443 82.692 83.098 75.3251 85.8902Z" fill="black"/>
<path d="M97.2501 80.3058C94.2506 80.7546 89.5067 79.9967 82.7547 83.3573C85.9676 82.6293 91.6402 84.1152 97.2501 80.3058Z" fill="black"/>
<path d="M103.224 75.2399C99.2455 76.3269 95.4303 76.4266 89.7075 80.1163C92.5061 79.149 98.5427 79.9069 103.224 75.2399Z" fill="black"/>
<path d="M107.955 69.4261C104.617 71.0117 100.513 71.989 95.9951 76.1075C98.0909 74.9707 104.742 74.6217 107.955 69.4261Z" fill="black"/>
<path d="M101.128 71.3308C102.898 69.9946 108.821 68.9973 111.043 63.1038C107.491 65.5769 104.893 66.624 101.128 71.3308Z" fill="black"/>
<path d="M105.056 65.9458C106.073 64.7891 111.846 62.6351 112.674 56.5919C108.169 60.6107 106.123 63.6024 105.056 65.9458Z" fill="black"/>
<path d="M112.975 49.9903C110.398 53.0411 108.583 56.4571 107.629 60.0523C108.47 58.5963 113.389 56.0634 112.975 49.9903Z" fill="black"/>
<path d="M108.809 53.9792C109.323 52.5731 113.615 49.6313 112.034 43.5782C110.235 46.8776 109.144 50.3933 108.809 53.9792V53.9792Z" fill="black"/>
<path d="M109.762 37.0763C109.637 37.5051 108.369 44.2065 108.796 47.7765C109.009 46.4303 112.975 42.8004 109.762 37.0763Z" fill="black"/>
<path d="M106.336 31.831C106.207 31.6422 106.064 31.4591 105.91 31.2825C105.546 34.0348 107.742 41.5838 107.754 41.6735C107.767 40.3273 110.352 37.2459 106.336 31.831Z" fill="black"/>
<path d="M95.9198 25C98.4298 28.4504 100.362 33.2071 105.044 36.3384C105.696 32.529 99.2832 26.8449 95.9198 25Z" fill="black"/>
<path d="M55.2226 83.7719C40.3519 77.4141 31.0539 68.4548 25.7275 56.1549C20.4781 44.0398 19.1696 28.7842 20.2472 9.64937C20.2934 8.69493 21.0015 7.95602 21.8944 7.78668L34.5945 5.1389C35.6721 4.92338 36.7343 5.61612 36.9498 6.6937C36.9806 6.86304 36.996 7.01698 36.996 7.18631V9.23373L46.7866 7.00158L46.7712 3.95356C46.7712 3.02991 47.4024 2.26021 48.2645 2.02929L55.4997 0.13582C55.8384 0.0434561 56.1924 0.0588503 56.5157 0.13582L63.7355 2.02929C64.6592 2.2756 65.2595 3.12227 65.2288 4.03053L65.2134 7.00158L75.004 9.23373V7.09395C75.004 6.00097 75.8969 5.10811 76.9898 5.10811C77.1284 5.10811 77.2669 5.12351 77.4055 5.1389L90.1672 7.80208C91.0754 7.98681 91.7066 8.77191 91.7528 9.64937C92.8304 28.7842 91.5219 44.0398 86.2725 56.1549C80.9461 68.4548 71.6481 77.4141 56.7774 83.7719C56.254 83.9874 55.6998 83.972 55.2226 83.7719ZM29.3759 54.5847C34.1789 65.6839 42.5994 73.8581 55.9923 79.7694C69.4006 73.8581 77.8057 65.6839 82.6241 54.5847C87.4578 43.424 88.7509 29.2153 87.8581 11.3889L78.9757 9.54161V11.6352C78.9757 11.8045 78.9603 11.9893 78.9295 12.1586C78.6832 13.2362 77.621 13.9135 76.5434 13.6672L62.7811 10.5422C61.9036 10.3421 61.2417 9.54161 61.2417 8.60257V5.49296L55.9923 4.12289L50.7583 5.49296V8.51021C50.8045 9.44924 50.1579 10.3267 49.2035 10.5422L35.4412 13.6672C35.3026 13.698 35.1641 13.7134 35.0102 13.7134C33.9172 13.7134 33.0243 12.8205 33.0243 11.7276V9.54161L24.1419 11.3889C23.2491 29.2153 24.5422 43.424 29.3759 54.5847Z" fill="black"/>
<path d="M55.1508 35.428C55.1508 34.468 55.2348 32.98 55.4028 30.964L55.4748 30.1L55.1148 30.064C54.5628 32.104 54.0828 33.724 53.6748 34.924L48.8868 49H44.0988L39.0588 34.924C38.6028 33.844 38.1948 32.5 37.8348 30.892L37.6188 30.064L37.2588 30.1C37.4748 32.236 37.5828 34.012 37.5828 35.428V44.896C38.4708 45.232 39.1308 45.676 39.5628 46.228L39.2028 49H32.1468L31.7868 46.228C32.2188 45.676 32.8788 45.232 33.7668 44.896V28.264C32.7828 27.904 32.0988 27.46 31.7148 26.932L32.0748 24.16H40.2828L45.5388 38.668C46.2108 40.252 46.6428 41.704 46.8348 43.024L46.9428 43.636H47.4468C47.5428 42.172 47.9748 40.516 48.7428 38.668L53.7468 24.16H61.8108L62.1708 26.932C61.7868 27.46 61.1028 27.904 60.1188 28.264V44.752C61.0548 45.112 61.7148 45.532 62.0988 46.012L61.7388 49H53.5308L53.1708 46.048C53.5548 45.568 54.2148 45.148 55.1508 44.788V35.428ZM81.2949 49H64.8069L64.4469 46.012C64.7589 45.604 65.4189 45.208 66.4269 44.824V28.372C65.4429 28.012 64.7829 27.604 64.4469 27.148L64.8069 24.16H73.2309L73.5909 27.148C73.2069 27.604 72.5469 28.012 71.6109 28.372V45.076H77.2989C77.6109 43.828 78.0549 42.94 78.6309 42.412L81.2949 42.736V49Z" fill="black"/>
</svg>
