<svg width="75" height="74" viewBox="0 0 75 74" fill="none" xmlns="http://www.w3.org/2000/svg">
<path fill-rule="evenodd" clip-rule="evenodd" d="M67.9977 73.9139L67.9977 73.9185H51.108C51.108 73.9185 30.4182 75.5702 18.5955 64.0037C6.77275 52.4371 8.03945 40.8843 8.03945 40.8843V27.2578C8.03945 27.2578 8.03945 -0.408348 38.4408 0.0045767C68.8421 0.417501 67.9977 27.2578 67.9977 27.2578L67.9977 33.4471C67.9735 33.458 51.5303 40.8898 51.5303 54.5064C51.5303 68.1329 64.1975 73.9139 64.1975 73.9139H67.9977ZM67.9977 36.3376V73.9139C67.9977 73.9139 54.0637 66.4812 54.0637 54.5064C54.0637 42.541 67.9754 36.3475 67.9977 36.3376ZM52.9831 36.8384H23.9852V36.8013C16.7039 36.404 10.9788 30.2903 11.4438 22.955C11.85 16.5447 17.1428 11.27 23.676 10.7761C30.0077 10.2972 35.491 14.1638 37.3598 19.6524C37.5544 20.2239 38.3675 20.2231 38.5621 19.6516C40.3365 14.4396 45.3707 10.6911 51.2955 10.7365C58.0224 10.7877 63.7863 15.9187 64.4393 22.4818C65.152 29.6486 59.9106 35.9217 52.9831 36.8384Z" fill="#7D4CDB"/>
<path d="M35.1152 29.2648L37.2458 32.893C37.5704 33.4466 38.3728 33.4466 38.6982 32.893L40.8288 29.2648C41.0266 28.9276 40.9652 28.4995 40.6802 28.2316L38.5497 26.2287C38.2259 25.9238 37.7197 25.9238 37.3952 26.2287L35.2646 28.2316C34.9788 28.4987 34.9174 28.9276 35.1152 29.2648Z" fill="#7D4CDB"/>
<path d="M59.1763 23.3073C59.1763 27.6145 55.6717 31.1146 51.3382 31.1146C47.0046 31.1146 43.5 27.6145 43.5 23.3073C43.5 19.0001 47.0046 15.5 51.3382 15.5C55.6717 15.5 59.1763 19.0001 59.1763 23.3073Z" stroke="#7D4CDB" stroke-width="3"/>
<path d="M32.1763 23.3073C32.1763 27.6145 28.6717 31.1146 24.3382 31.1146C20.0046 31.1146 16.5 27.6145 16.5 23.3073C16.5 19.0001 20.0046 15.5 24.3382 15.5C28.6717 15.5 32.1763 19.0001 32.1763 23.3073Z" stroke="#7D4CDB" stroke-width="3"/>
</svg>
