<svg width="500" height="96" viewBox="0 0 500 96" fill="none" xmlns="http://www.w3.org/2000/svg">
<path d="M187.24 61.04L191.96 74H203.96L182.36 17.28H169.56L147.8 74H159.48L164.2 61.04H187.24ZM167.88 50.96L175.72 29.52L183.56 50.96H167.88ZM227.313 43.28C232.593 43.28 235.073 46.64 236.033 49.92L245.553 46.72C243.873 40.08 237.793 33.44 227.073 33.44C215.633 33.44 206.673 42.16 206.673 54.32C206.673 66.4 215.793 75.2 227.393 75.2C237.873 75.2 244.033 68.48 245.793 61.92L236.433 58.8C235.553 61.84 232.833 65.44 227.393 65.44C221.953 65.44 217.313 61.44 217.313 54.32C217.313 47.2 221.873 43.28 227.313 43.28ZM251.061 63.28C251.061 69.44 256.181 75.12 264.581 75.12C270.421 75.12 274.181 72.4 276.181 69.28C276.181 70.8 276.341 72.96 276.581 74H286.341C286.101 72.64 285.861 69.84 285.861 67.76V48.4C285.861 40.48 281.221 33.44 268.741 33.44C258.181 33.44 252.501 40.24 251.861 46.4L261.301 48.4C261.621 44.96 264.181 42 268.821 42C273.301 42 275.461 44.32 275.461 47.12C275.461 48.48 274.741 49.6 272.501 49.92L262.821 51.36C256.261 52.32 251.061 56.24 251.061 63.28ZM266.821 67.2C263.381 67.2 261.701 64.96 261.701 62.64C261.701 59.6 263.861 58.08 266.581 57.68L275.461 56.32V58.08C275.461 65.04 271.301 67.2 266.821 67.2ZM333.95 66.88V16.08H323.47V38.56C322.35 36.48 319.15 33.68 312.35 33.68C301.23 33.68 293.47 42.72 293.47 54.24C293.47 66.16 301.47 74.96 312.67 74.96C317.95 74.96 321.95 72.56 323.71 69.44C323.71 71.28 323.95 73.2 324.11 74H334.27C334.11 72.4 333.95 69.52 333.95 66.88ZM304.19 54.24C304.19 47.2 308.51 43.2 313.95 43.2C319.39 43.2 323.63 47.12 323.63 54.16C323.63 61.28 319.39 65.44 313.95 65.44C308.35 65.44 304.19 61.28 304.19 54.24ZM380.773 62.72L371.893 60.08C370.613 63.6 367.893 66.08 362.933 66.08C357.653 66.08 353.253 62.32 353.013 57.12H381.173C381.173 56.96 381.333 55.36 381.333 53.84C381.333 41.2 374.053 33.44 361.893 33.44C351.813 33.44 342.533 41.6 342.533 54.16C342.533 67.44 352.053 75.2 362.853 75.2C372.533 75.2 378.773 69.52 380.773 62.72ZM370.853 49.84H353.253C353.493 46.24 356.533 42.08 362.053 42.08C368.133 42.08 370.693 45.92 370.853 49.84ZM389.711 74H400.351V50.96C400.351 46.64 403.071 43.2 407.711 43.2C412.511 43.2 414.671 46.4 414.671 50.64V74H425.231V50.96C425.231 46.72 427.951 43.2 432.511 43.2C437.391 43.2 439.471 46.4 439.471 50.64V74H449.791V48.48C449.791 37.92 442.831 33.52 435.551 33.52C430.351 33.52 426.191 35.28 423.071 40.08C421.071 35.84 416.751 33.52 411.391 33.52C407.071 33.52 402.031 35.6 399.871 39.44V34.64H389.711V74ZM462.188 89.52H473.468L498.188 34.64H486.828L477.148 57.68L466.668 34.64H454.748L471.468 69.04L462.188 89.52Z" fill="white"/>
<path d="M59.9173 73.9H70.0652V51.9256C70.0652 47.8054 72.6594 44.5245 77.0848 44.5245C81.6628 44.5245 83.7229 47.5765 83.7229 51.6204V73.9H93.7945V51.9256C93.7945 47.8817 96.3887 44.5245 100.738 44.5245C105.392 44.5245 107.376 47.5765 107.376 51.6204V73.9H117.219V49.5603C117.219 39.4887 110.581 35.2922 103.637 35.2922C98.6777 35.2922 94.7101 36.9708 91.7344 41.5488C89.8269 37.5049 85.7067 35.2922 80.5946 35.2922C76.4744 35.2922 71.6675 37.276 69.6074 40.9384V36.3604H59.9173V73.9ZM127.499 73.9H137.647V18.6588H127.499V73.9Z" fill="white"/>
<path fill-rule="evenodd" clip-rule="evenodd" d="M59.9977 73.9139L59.9977 73.9185H43.108C43.108 73.9185 22.4182 75.5702 10.5955 64.0037C-1.22725 52.4371 0.0394461 40.8843 0.0394461 40.8843V27.2578C0.0394461 27.2578 0.0394497 -0.408348 30.4408 0.0045767C60.8421 0.417501 59.9977 27.2578 59.9977 27.2578L59.9977 33.4471C59.9735 33.458 43.5303 40.8898 43.5303 54.5064C43.5303 68.1329 56.1975 73.9139 56.1975 73.9139H59.9977ZM59.9977 36.3376V73.9139C59.9977 73.9139 46.0637 66.4812 46.0637 54.5064C46.0637 42.541 59.9754 36.3475 59.9977 36.3376ZM44.9831 36.8384H15.9852V36.8013C8.70387 36.404 2.97876 30.2903 3.44385 22.955C3.84996 16.5447 9.14284 11.27 15.676 10.7761C22.0077 10.2972 27.491 14.1638 29.3598 19.6524C29.5544 20.2239 30.3675 20.2231 30.5621 19.6516C32.3365 14.4396 37.3707 10.6911 43.2955 10.7365C50.0224 10.7877 55.7863 15.9187 56.4393 22.4818C57.152 29.6486 51.9106 35.9217 44.9831 36.8384Z" fill="white"/>
<path d="M27.1152 29.2648L29.2458 32.893C29.5704 33.4466 30.3728 33.4466 30.6982 32.893L32.8288 29.2648C33.0266 28.9276 32.9652 28.4995 32.6802 28.2316L30.5497 26.2287C30.2259 25.9238 29.7197 25.9238 29.3952 26.2287L27.2646 28.2316C26.9788 28.4987 26.9174 28.9276 27.1152 29.2648Z" fill="white"/>
<path d="M51.1763 23.3073C51.1763 27.6145 47.6717 31.1146 43.3382 31.1146C39.0046 31.1146 35.5 27.6145 35.5 23.3073C35.5 19.0001 39.0046 15.5 43.3382 15.5C47.6717 15.5 51.1763 19.0001 51.1763 23.3073Z" stroke="white" stroke-width="3"/>
<path d="M24.1763 23.3073C24.1763 27.6145 20.6717 31.1146 16.3382 31.1146C12.0046 31.1146 8.5 27.6145 8.5 23.3073C8.5 19.0001 12.0046 15.5 16.3382 15.5C20.6717 15.5 24.1763 19.0001 24.1763 23.3073Z" stroke="white" stroke-width="3"/>
</svg>
