<svg width="512" height="513" viewBox="0 0 512 513" fill="none" xmlns="http://www.w3.org/2000/svg">
<path d="M236.114 221.693L251.127 247.344C253.414 251.258 259.069 251.258 261.362 247.344L276.375 221.693C277.768 219.309 277.336 216.283 275.328 214.389L260.315 200.229C258.034 198.073 254.467 198.073 252.18 200.229L237.167 214.389C235.153 216.277 234.721 219.309 236.114 221.693Z" fill="#7D4CDB"/>
<path d="M402.342 171.267C402.342 201.685 377.682 226.344 347.264 226.344C316.845 226.344 292.186 201.685 292.186 171.267C292.186 140.848 316.845 116.189 347.264 116.189C377.682 116.189 402.342 140.848 402.342 171.267Z" stroke="#7D4CDB" stroke-width="15"/>
<path d="M220.297 171.267C220.297 201.685 195.638 226.344 165.219 226.344C134.801 226.344 110.142 201.685 110.142 171.267C110.142 140.848 134.801 116.189 165.219 116.189C195.638 116.189 220.297 140.848 220.297 171.267Z" stroke="#7D4CDB" stroke-width="15"/>
<path d="M261.714 0.600006H250.775C142.003 0.600006 53.8253 88.7778 53.8253 197.549V270.174C53.8196 404.062 162.358 512.6 296.246 512.6H415.394C417.374 512.6 418.102 509.994 416.395 508.993C409.739 505.074 403.464 500.574 397.639 495.556C370.201 471.93 352.771 436.983 352.771 398.02C352.771 340.961 390.107 292.48 441.62 275.646C446.649 274.002 451.809 272.671 457.088 271.653C458.004 271.476 458.664 270.691 458.664 269.758V197.549C458.664 88.7778 370.486 0.600006 261.714 0.600006ZM357.675 261.288H161.88V261.032C112.717 258.295 74.0607 216.18 77.2009 165.652C79.943 121.495 115.681 85.1597 159.792 81.7577C202.544 78.4581 239.567 105.094 252.185 142.902C253.5 146.839 258.989 146.833 260.304 142.896C272.284 106.994 306.275 81.1717 346.28 81.4846C391.7 81.8373 430.617 117.182 435.026 162.392C439.839 211.76 404.449 254.973 357.675 261.288Z" fill="#7D4CDB"/>
<path d="M375.708 404.479C375.708 450.781 397.572 490.616 428.682 507.738C432.03 509.581 435.495 511.135 439.048 512.418C441.533 513.315 443.975 510.78 443.975 507.455V301.515C443.975 298.07 441.402 295.685 438.834 296.631C435.812 297.745 432.861 299.058 429.984 300.575C398.198 317.288 375.708 357.538 375.708 404.479Z" fill="#7D4CDB"/>
<rect x="438.286" y="296.422" width="17.0667" height="216.178" fill="#7D4CDB"/>
</svg>
