<svg width="462" height="108" viewBox="0 0 462 108" fill="none" xmlns="http://www.w3.org/2000/svg">
<path d="M32.4534 38.864L35.0917 43.373C35.4936 44.061 36.4873 44.061 36.8902 43.373L39.5285 38.864C39.7735 38.445 39.6975 37.913 39.3446 37.58L36.7063 35.091C36.3054 34.712 35.6786 34.712 35.2767 35.091L32.6384 37.58C32.2845 37.912 32.2085 38.445 32.4534 38.864Z" fill="7D4CDB"/>
<path d="M61.4832 30C61.4832 35.2471 57.2309 39.5 51.9862 39.5C46.7415 39.5 42.4891 35.2471 42.4891 30C42.4891 24.7529 46.7415 20.5 51.9862 20.5C57.2309 20.5 61.4832 24.7529 61.4832 30Z" stroke="7D4CDB" stroke-width="3"/>
<path d="M29.4918 30C29.4918 35.2471 25.2395 39.5 19.9948 39.5C14.7501 39.5 10.4977 35.2471 10.4977 30C10.4977 24.7529 14.7501 20.5 19.9948 20.5C25.2395 20.5 29.4918 24.7529 29.4918 30Z" stroke="7D4CDB" stroke-width="3"/>
<path d="M36.9522 0H35.0297C15.9148 0 0.418999 15.5 0.418999 34.62V47.386C0.417999 70.921 19.4919 90 43.0206 90H63.959C64.3069 90 64.4349 89.542 64.1349 89.366C62.9652 88.677 61.8625 87.886 60.8388 87.004C56.0171 82.851 52.9539 76.708 52.9539 69.859C52.9539 59.829 59.5152 51.307 68.5677 48.348C69.4515 48.059 70.3583 47.825 71.286 47.646C71.447 47.615 71.5629 47.477 71.5629 47.313V34.62C71.5629 15.5 56.0671 0 36.9522 0ZM53.8157 45.824H19.4079V45.779C10.7682 45.298 3.97505 37.895 4.5269 29.013C5.00877 21.251 11.2891 14.864 19.041 14.266C26.554 13.686 33.0603 18.368 35.2777 25.014C35.5086 25.706 36.4733 25.705 36.7043 25.013C38.8097 18.702 44.7831 14.163 51.8132 14.218C59.7951 14.28 66.6343 20.493 67.4091 28.44C68.2548 37.118 62.0355 44.714 53.8157 45.824Z" fill="7D4CDB"/>
<path d="M56.9848 70.9944C56.9848 79.1335 60.827 86.1355 66.2941 89.1454C66.8825 89.4693 67.4914 89.7425 68.1159 89.968C68.5524 90.1257 68.9816 89.68 68.9816 89.0956V52.8952C68.9816 52.2896 68.5295 51.8704 68.0781 52.0366C67.5472 52.2325 67.0285 52.4633 66.523 52.7301C60.937 55.6679 56.9848 62.743 56.9848 70.9944Z" fill="7D4CDB"/>
<rect x="68" y="52" width="2" height="38" fill="7D4CDB"/>
<path d="M68.081 90C67.5943 90 67.1807 89.854 66.84 89.562C66.548 89.2213 66.402 88.8077 66.402 88.321V53.719C66.402 53.2323 66.548 52.843 66.84 52.551C67.1807 52.2103 67.5943 52.04 68.081 52.04H71.366C71.8527 52.04 72.242 52.2103 72.534 52.551C72.8747 52.843 73.045 53.2323 73.045 53.719V56.274C75.5757 52.9647 79.104 51.31 83.63 51.31C89.032 51.31 92.8523 53.5487 95.091 58.026C96.259 55.982 97.9137 54.3517 100.055 53.135C102.196 51.9183 104.605 51.31 107.282 51.31C111.273 51.31 114.533 52.6727 117.064 55.398C119.595 58.1233 120.86 62.0653 120.86 67.224V88.321C120.86 88.8077 120.69 89.2213 120.349 89.562C120.057 89.854 119.668 90 119.181 90H115.75C115.263 90 114.85 89.854 114.509 89.562C114.217 89.2213 114.071 88.8077 114.071 88.321V67.881C114.071 64.085 113.268 61.3597 111.662 59.705C110.105 58.0503 108.036 57.223 105.457 57.223C103.17 57.223 101.199 58.0747 99.544 59.778C97.8893 61.4327 97.062 64.1337 97.062 67.881V88.321C97.062 88.8077 96.8917 89.2213 96.551 89.562C96.259 89.854 95.8697 90 95.383 90H91.952C91.4653 90 91.0517 89.854 90.711 89.562C90.419 89.2213 90.273 88.8077 90.273 88.321V67.881C90.273 64.085 89.4457 61.3597 87.791 59.705C86.185 58.0503 84.141 57.223 81.659 57.223C79.3717 57.223 77.4007 58.0747 75.746 59.778C74.0913 61.4327 73.264 64.1093 73.264 67.808V88.321C73.264 88.8077 73.0937 89.2213 72.753 89.562C72.461 89.854 72.0717 90 71.585 90H68.081ZM133.027 90C132.54 90 132.127 89.854 131.786 89.562C131.494 89.2213 131.348 88.8077 131.348 88.321V39.849C131.348 39.3623 131.494 38.973 131.786 38.681C132.127 38.3403 132.54 38.17 133.027 38.17H136.458C136.945 38.17 137.334 38.3403 137.626 38.681C137.967 38.973 138.137 39.3623 138.137 39.849V88.321C138.137 88.8077 137.967 89.2213 137.626 89.562C137.334 89.854 136.945 90 136.458 90H133.027ZM146.544 90C146.155 90 145.814 89.854 145.522 89.562C145.23 89.27 145.084 88.9293 145.084 88.54C145.084 88.1507 145.108 87.883 145.157 87.737L163.261 40.506C163.65 39.4353 164.429 38.9 165.597 38.9H170.561C171.729 38.9 172.508 39.4353 172.897 40.506L190.928 87.737L191.074 88.54C191.074 88.9293 190.928 89.27 190.636 89.562C190.344 89.854 190.003 90 189.614 90H185.891C185.356 90 184.942 89.8783 184.65 89.635C184.358 89.343 184.163 89.051 184.066 88.759L180.051 78.393H156.107L152.092 88.759C151.995 89.051 151.776 89.343 151.435 89.635C151.143 89.8783 150.754 90 150.267 90H146.544ZM177.934 72.115L168.079 46.2L158.224 72.115H177.934ZM212.833 90.73C207.625 90.73 203.537 89.27 200.569 86.35C197.649 83.3813 196.091 79.2447 195.897 73.94L195.824 71.02L195.897 68.1C196.091 62.7953 197.649 58.683 200.569 55.763C203.537 52.7943 207.625 51.31 212.833 51.31C216.337 51.31 219.305 51.9427 221.739 53.208C224.172 54.4733 225.973 56.0307 227.141 57.88C228.357 59.7293 229.014 61.5787 229.112 63.428C229.16 63.9147 229.014 64.304 228.674 64.596C228.333 64.888 227.919 65.034 227.433 65.034H223.929C223.442 65.034 223.077 64.9367 222.834 64.742C222.59 64.5473 222.347 64.158 222.104 63.574C221.276 61.238 220.108 59.5833 218.6 58.61C217.091 57.588 215.193 57.077 212.906 57.077C209.888 57.077 207.479 58.026 205.679 59.924C203.927 61.7733 202.978 64.6203 202.832 68.465L202.759 71.093L202.832 73.575C202.978 77.4683 203.927 80.3397 205.679 82.189C207.431 84.0383 209.84 84.963 212.906 84.963C215.193 84.963 217.091 84.4763 218.6 83.503C220.108 82.481 221.276 80.802 222.104 78.466C222.347 77.882 222.59 77.4927 222.834 77.298C223.077 77.0547 223.442 76.933 223.929 76.933H227.433C227.919 76.933 228.333 77.1033 228.674 77.444C229.014 77.736 229.16 78.1253 229.112 78.612C229.014 80.4127 228.357 82.262 227.141 84.16C225.973 86.0093 224.172 87.5667 221.739 88.832C219.354 90.0973 216.385 90.73 212.833 90.73ZM248.366 90.73C245.981 90.73 243.767 90.2433 241.723 89.27C239.679 88.2967 238.049 86.9827 236.832 85.328C235.664 83.6247 235.08 81.751 235.08 79.707C235.08 76.495 236.394 73.867 239.022 71.823C241.699 69.7303 245.3 68.3677 249.826 67.735L260.703 66.202V64.085C260.703 59.121 257.856 56.639 252.162 56.639C250.021 56.639 248.269 57.1013 246.906 58.026C245.543 58.902 244.521 59.9483 243.84 61.165C243.694 61.603 243.499 61.9193 243.256 62.114C243.061 62.3087 242.769 62.406 242.38 62.406H239.241C238.803 62.406 238.414 62.26 238.073 61.968C237.781 61.6273 237.635 61.238 237.635 60.8C237.684 59.632 238.219 58.318 239.241 56.858C240.312 55.3493 241.942 54.0597 244.132 52.989C246.322 51.8697 249.023 51.31 252.235 51.31C257.686 51.31 261.603 52.5997 263.988 55.179C266.373 57.7097 267.565 60.873 267.565 64.669V88.321C267.565 88.8077 267.395 89.2213 267.054 89.562C266.762 89.854 266.373 90 265.886 90H262.528C262.041 90 261.628 89.854 261.287 89.562C260.995 89.2213 260.849 88.8077 260.849 88.321V85.182C259.778 86.7393 258.221 88.0533 256.177 89.124C254.133 90.1947 251.529 90.73 248.366 90.73ZM249.899 85.255C253.062 85.255 255.642 84.233 257.637 82.189C259.681 80.0963 260.703 77.1033 260.703 73.21V71.166L252.235 72.407C248.78 72.8937 246.176 73.721 244.424 74.889C242.672 76.0083 241.796 77.444 241.796 79.196C241.796 81.1427 242.599 82.6513 244.205 83.722C245.811 84.744 247.709 85.255 249.899 85.255ZM291.929 90.73C286.868 90.73 283.048 89.0753 280.468 85.766C277.889 82.4567 276.526 78.2713 276.38 73.21L276.307 71.02L276.38 68.83C276.526 63.8173 277.889 59.6563 280.468 56.347C283.048 52.989 286.868 51.31 291.929 51.31C296.942 51.31 300.884 53.0863 303.755 56.639V39.849C303.755 39.3623 303.901 38.973 304.193 38.681C304.534 38.3403 304.948 38.17 305.434 38.17H308.938C309.425 38.17 309.814 38.3403 310.106 38.681C310.447 38.973 310.617 39.3623 310.617 39.849V88.321C310.617 88.8077 310.447 89.2213 310.106 89.562C309.814 89.854 309.425 90 308.938 90H305.653C305.167 90 304.753 89.854 304.412 89.562C304.12 89.2213 303.974 88.8077 303.974 88.321V85.255C301.152 88.905 297.137 90.73 291.929 90.73ZM293.462 84.817C296.82 84.817 299.327 83.722 300.981 81.532C302.685 79.2933 303.609 76.641 303.755 73.575C303.804 73.0397 303.828 72.115 303.828 70.801C303.828 69.4383 303.804 68.4893 303.755 67.954C303.658 65.0827 302.733 62.5763 300.981 60.435C299.229 58.2937 296.723 57.223 293.462 57.223C290.007 57.223 287.476 58.2937 285.87 60.435C284.313 62.5763 283.461 65.399 283.315 68.903L283.242 71.02C283.242 80.218 286.649 84.817 293.462 84.817ZM336.658 90.73C331.646 90.73 327.631 89.197 324.613 86.131C321.645 83.0163 320.014 78.7823 319.722 73.429L319.649 70.947L319.722 68.538C320.063 63.282 321.718 59.0967 324.686 55.982C327.704 52.8673 331.67 51.31 336.585 51.31C341.987 51.31 346.173 53.0377 349.141 56.493C352.11 59.8997 353.594 64.523 353.594 70.363V71.604C353.594 72.0907 353.424 72.5043 353.083 72.845C352.791 73.137 352.402 73.283 351.915 73.283H326.657V73.94C326.803 77.1033 327.752 79.8043 329.504 82.043C331.305 84.233 333.665 85.328 336.585 85.328C338.824 85.328 340.649 84.89 342.06 84.014C343.52 83.0893 344.591 82.1403 345.272 81.167C345.71 80.583 346.027 80.2423 346.221 80.145C346.465 79.999 346.878 79.926 347.462 79.926H351.039C351.477 79.926 351.842 80.0477 352.134 80.291C352.426 80.5343 352.572 80.875 352.572 81.313C352.572 82.3837 351.891 83.6733 350.528 85.182C349.214 86.6907 347.341 88.0047 344.907 89.124C342.523 90.1947 339.773 90.73 336.658 90.73ZM346.659 68.246V68.027C346.659 64.669 345.735 61.9437 343.885 59.851C342.085 57.7097 339.651 56.639 336.585 56.639C333.519 56.639 331.086 57.7097 329.285 59.851C327.533 61.9437 326.657 64.669 326.657 68.027V68.246H346.659ZM364.002 90C363.515 90 363.102 89.854 362.761 89.562C362.469 89.2213 362.323 88.8077 362.323 88.321V53.719C362.323 53.2323 362.469 52.843 362.761 52.551C363.102 52.2103 363.515 52.04 364.002 52.04H367.287C367.774 52.04 368.163 52.2103 368.455 52.551C368.796 52.843 368.966 53.2323 368.966 53.719V56.274C371.497 52.9647 375.025 51.31 379.551 51.31C384.953 51.31 388.773 53.5487 391.012 58.026C392.18 55.982 393.835 54.3517 395.976 53.135C398.117 51.9183 400.526 51.31 403.203 51.31C407.194 51.31 410.454 52.6727 412.985 55.398C415.516 58.1233 416.781 62.0653 416.781 67.224V88.321C416.781 88.8077 416.611 89.2213 416.27 89.562C415.978 89.854 415.589 90 415.102 90H411.671C411.184 90 410.771 89.854 410.43 89.562C410.138 89.2213 409.992 88.8077 409.992 88.321V67.881C409.992 64.085 409.189 61.3597 407.583 59.705C406.026 58.0503 403.957 57.223 401.378 57.223C399.091 57.223 397.12 58.0747 395.465 59.778C393.81 61.4327 392.983 64.1337 392.983 67.881V88.321C392.983 88.8077 392.813 89.2213 392.472 89.562C392.18 89.854 391.791 90 391.304 90H387.873C387.386 90 386.973 89.854 386.632 89.562C386.34 89.2213 386.194 88.8077 386.194 88.321V67.881C386.194 64.085 385.367 61.3597 383.712 59.705C382.106 58.0503 380.062 57.223 377.58 57.223C375.293 57.223 373.322 58.0747 371.667 59.778C370.012 61.4327 369.185 64.1093 369.185 67.808V88.321C369.185 88.8077 369.015 89.2213 368.674 89.562C368.382 89.854 367.993 90 367.506 90H364.002ZM432.698 103.87C432.309 103.87 431.968 103.724 431.676 103.432C431.384 103.14 431.238 102.799 431.238 102.41C431.238 102.069 431.36 101.631 431.603 101.096L437.224 87.737L423.281 54.814C423.038 54.1813 422.916 53.7677 422.916 53.573C422.916 53.135 423.062 52.77 423.354 52.478C423.646 52.186 424.011 52.04 424.449 52.04H428.026C428.805 52.04 429.389 52.4537 429.778 53.281L440.874 79.853L452.262 53.281C452.652 52.4537 453.26 52.04 454.087 52.04H457.518C457.956 52.04 458.321 52.186 458.613 52.478C458.905 52.77 459.051 53.1107 459.051 53.5C459.051 53.646 458.93 54.084 458.686 54.814L437.954 102.629C437.565 103.456 436.957 103.87 436.129 103.87H432.698Z" fill="7D4CDB"/>
</svg>
