<svg width="512" height="512" viewBox="0 0 512 512" fill="none" xmlns="http://www.w3.org/2000/svg">
<path d="M236.24 221.033L251.249 246.677C253.535 250.59 259.188 250.59 261.48 246.677L276.489 221.033C277.882 218.65 277.45 215.624 275.443 213.731L260.434 199.575C258.153 197.419 254.587 197.419 252.301 199.575L237.292 213.731C235.279 215.619 234.846 218.65 236.24 221.033Z" fill="#81FCED"/>
<path d="M402.42 170.62C402.42 201.03 377.768 225.681 347.359 225.681C316.95 225.681 292.298 201.03 292.298 170.62C292.298 140.211 316.95 115.56 347.359 115.56C377.768 115.56 402.42 140.211 402.42 170.62Z" stroke="#81FCED" stroke-width="15"/>
<path d="M220.425 170.62C220.425 201.03 195.773 225.681 165.364 225.681C134.955 225.681 110.303 201.03 110.303 170.62C110.303 140.211 134.955 115.56 165.364 115.56C195.773 115.56 220.425 140.211 220.425 170.62Z" stroke="#81FCED" stroke-width="15"/>
<path d="M261.833 0H250.896C142.154 0 54 88.1539 54 196.896V269.501C53.9943 403.352 162.503 511.861 296.355 511.861H415.471C417.45 511.861 418.178 509.256 416.472 508.255C409.818 504.337 403.544 499.838 397.721 494.822C370.29 471.202 352.864 436.265 352.864 397.312C352.864 340.268 390.19 291.801 441.689 274.972C446.717 273.328 451.875 271.997 457.153 270.979C458.069 270.803 458.729 270.018 458.729 269.085V196.896C458.729 88.1539 370.575 0 261.833 0ZM357.767 260.617H162.025V260.361C112.875 257.625 74.2299 215.522 77.3693 165.007C80.1106 120.862 115.839 84.5367 159.938 81.1357C202.679 77.837 239.692 104.465 252.306 142.263C253.62 146.199 259.109 146.193 260.422 142.258C272.4 106.365 306.382 80.5499 346.375 80.8627C391.783 81.2153 430.69 116.551 435.098 161.748C439.909 211.103 404.528 254.304 357.767 260.617Z" fill="#81FCED"/>
<path d="M389.831 403.908C389.831 450.198 411.689 490.021 442.79 507.139C446.137 508.982 449.601 510.535 453.154 511.818C455.637 512.715 458.079 510.18 458.079 506.856V300.972C458.079 297.528 455.507 295.144 452.939 296.089C449.919 297.203 446.968 298.516 444.092 300.033C412.314 316.741 389.831 356.98 389.831 403.908Z" fill="#81FCED"/>
</svg>
