<svg width="72" height="90" viewBox="0 0 72 90" fill="none" xmlns="http://www.w3.org/2000/svg">
<path d="M32.462 38.864L35.101 43.373C35.503 44.061 36.497 44.061 36.9 43.373L39.539 38.864C39.784 38.445 39.708 37.913 39.355 37.58L36.716 35.091C36.315 34.712 35.688 34.712 35.286 35.091L32.647 37.58C32.293 37.912 32.217 38.445 32.462 38.864Z" fill="white"/>
<path d="M61.5 30C61.5 35.2467 57.2467 39.5 52 39.5C46.7533 39.5 42.5 35.2467 42.5 30C42.5 24.7533 46.7533 20.5 52 20.5C57.2467 20.5 61.5 24.7533 61.5 30Z" stroke="white" stroke-width="3"/>
<path d="M29.5 30C29.5 35.2467 25.2467 39.5 20 39.5C14.7533 39.5 10.5 35.2467 10.5 30C10.5 24.7533 14.7533 20.5 20 20.5C25.2467 20.5 29.5 24.7533 29.5 30Z" stroke="white" stroke-width="3"/>
<path d="M36.962 0H35.039C15.919 0 0.418999 15.5 0.418999 34.62V47.386C0.417999 70.921 19.497 90 43.032 90H63.976C64.324 90 64.452 89.542 64.152 89.366C62.982 88.677 61.879 87.886 60.855 87.004C56.032 82.851 52.968 76.708 52.968 69.859C52.968 59.829 59.531 51.307 68.586 48.348C69.47 48.059 70.377 47.825 71.305 47.646C71.466 47.615 71.582 47.477 71.582 47.313V34.62C71.582 15.5 56.082 0 36.962 0ZM53.83 45.824H19.413V45.779C10.771 45.298 3.976 37.895 4.528 29.013C5.01 21.251 11.292 14.864 19.046 14.266C26.561 13.686 33.069 18.368 35.287 25.014C35.518 25.706 36.483 25.705 36.714 25.013C38.82 18.702 44.795 14.163 51.827 14.218C59.811 14.28 66.652 20.493 67.427 28.44C68.273 37.118 62.052 44.714 53.83 45.824Z" fill="white"/>
<path d="M57 70.9944C57 79.1335 60.8432 86.1355 66.3117 89.1454C66.9003 89.4693 67.5093 89.7425 68.134 89.968C68.5707 90.1257 69 89.68 69 89.0956V52.8952C69 52.2896 68.5477 51.8704 68.0962 52.0366C67.5652 52.2325 67.0464 52.4633 66.5407 52.7301C60.9532 55.6679 57 62.743 57 70.9944Z" fill="white"/>
<rect x="68" y="52" width="3" height="38" fill="white"/>
</svg>
