<svg width="562" height="108" viewBox="0 0 562 108" fill="none" xmlns="http://www.w3.org/2000/svg">
<path d="M32.462 38.864L35.101 43.373C35.503 44.061 36.497 44.061 36.9 43.373L39.539 38.864C39.784 38.445 39.708 37.913 39.355 37.58L36.716 35.091C36.315 34.712 35.688 34.712 35.286 35.091L32.647 37.58C32.293 37.912 32.217 38.445 32.462 38.864Z" fill="white"/>
<path d="M61.5 30C61.5 35.2467 57.2467 39.5 52 39.5C46.7533 39.5 42.5 35.2467 42.5 30C42.5 24.7533 46.7533 20.5 52 20.5C57.2467 20.5 61.5 24.7533 61.5 30Z" stroke="white" stroke-width="3"/>
<path d="M29.5 30C29.5 35.2467 25.2467 39.5 20 39.5C14.7533 39.5 10.5 35.2467 10.5 30C10.5 24.7533 14.7533 20.5 20 20.5C25.2467 20.5 29.5 24.7533 29.5 30Z" stroke="white" stroke-width="3"/>
<path d="M36.962 0H35.039C15.919 0 0.418999 15.5 0.418999 34.62V47.386C0.417999 70.921 19.497 90 43.032 90H63.976C64.324 90 64.452 89.542 64.152 89.366C62.982 88.677 61.879 87.886 60.855 87.004C56.032 82.851 52.968 76.708 52.968 69.859C52.968 59.829 59.531 51.307 68.586 48.348C69.47 48.059 70.377 47.825 71.305 47.646C71.466 47.615 71.582 47.477 71.582 47.313V34.62C71.582 15.5 56.082 0 36.962 0ZM53.83 45.824H19.413V45.779C10.771 45.298 3.976 37.895 4.528 29.013C5.01 21.251 11.292 14.864 19.046 14.266C26.561 13.686 33.069 18.368 35.287 25.014C35.518 25.706 36.483 25.705 36.714 25.013C38.82 18.702 44.795 14.163 51.827 14.218C59.811 14.28 66.652 20.493 67.427 28.44C68.273 37.118 62.052 44.714 53.83 45.824Z" fill="white"/>
<path d="M57 70.9944C57 79.1335 60.8432 86.1355 66.3117 89.1454C66.9003 89.4693 67.5093 89.7425 68.134 89.968C68.5707 90.1257 69 89.68 69 89.0956V52.8952C69 52.2896 68.5477 51.8704 68.0962 52.0366C67.5652 52.2325 67.0464 52.4633 66.5407 52.7301C60.9532 55.6679 57 62.743 57 70.9944Z" fill="white"/>
<rect x="68" y="52" width="3" height="38" fill="white"/>
<path d="M69.081 90C68.5943 90 68.1807 89.854 67.84 89.562C67.548 89.2213 67.402 88.8077 67.402 88.321V53.719C67.402 53.2323 67.548 52.843 67.84 52.551C68.1807 52.2103 68.5943 52.04 69.081 52.04H72.366C72.8527 52.04 73.242 52.2103 73.534 52.551C73.8747 52.843 74.045 53.2323 74.045 53.719V56.274C76.5757 52.9647 80.104 51.31 84.63 51.31C90.032 51.31 93.8523 53.5487 96.091 58.026C97.259 55.982 98.9137 54.3517 101.055 53.135C103.196 51.9183 105.605 51.31 108.282 51.31C112.273 51.31 115.533 52.6727 118.064 55.398C120.595 58.1233 121.86 62.0653 121.86 67.224V88.321C121.86 88.8077 121.69 89.2213 121.349 89.562C121.057 89.854 120.668 90 120.181 90H116.75C116.263 90 115.85 89.854 115.509 89.562C115.217 89.2213 115.071 88.8077 115.071 88.321V67.881C115.071 64.085 114.268 61.3597 112.662 59.705C111.105 58.0503 109.036 57.223 106.457 57.223C104.17 57.223 102.199 58.0747 100.544 59.778C98.8893 61.4327 98.062 64.1337 98.062 67.881V88.321C98.062 88.8077 97.8917 89.2213 97.551 89.562C97.259 89.854 96.8697 90 96.383 90H92.952C92.4653 90 92.0517 89.854 91.711 89.562C91.419 89.2213 91.273 88.8077 91.273 88.321V67.881C91.273 64.085 90.4457 61.3597 88.791 59.705C87.185 58.0503 85.141 57.223 82.659 57.223C80.3717 57.223 78.4007 58.0747 76.746 59.778C75.0913 61.4327 74.264 64.1093 74.264 67.808V88.321C74.264 88.8077 74.0937 89.2213 73.753 89.562C73.461 89.854 73.0717 90 72.585 90H69.081ZM134.027 90C133.54 90 133.127 89.854 132.786 89.562C132.494 89.2213 132.348 88.8077 132.348 88.321V39.849C132.348 39.3623 132.494 38.973 132.786 38.681C133.127 38.3403 133.54 38.17 134.027 38.17H137.458C137.945 38.17 138.334 38.3403 138.626 38.681C138.967 38.973 139.137 39.3623 139.137 39.849V88.321C139.137 88.8077 138.967 89.2213 138.626 89.562C138.334 89.854 137.945 90 137.458 90H134.027ZM147.544 90C147.155 90 146.814 89.854 146.522 89.562C146.23 89.27 146.084 88.9293 146.084 88.54C146.084 88.1507 146.108 87.883 146.157 87.737L164.261 40.506C164.65 39.4353 165.429 38.9 166.597 38.9H171.561C172.729 38.9 173.508 39.4353 173.897 40.506L191.928 87.737L192.074 88.54C192.074 88.9293 191.928 89.27 191.636 89.562C191.344 89.854 191.003 90 190.614 90H186.891C186.356 90 185.942 89.8783 185.65 89.635C185.358 89.343 185.163 89.051 185.066 88.759L181.051 78.393H157.107L153.092 88.759C152.995 89.051 152.776 89.343 152.435 89.635C152.143 89.8783 151.754 90 151.267 90H147.544ZM178.934 72.115L169.079 46.2L159.224 72.115H178.934ZM213.833 90.73C208.625 90.73 204.537 89.27 201.569 86.35C198.649 83.3813 197.091 79.2447 196.897 73.94L196.824 71.02L196.897 68.1C197.091 62.7953 198.649 58.683 201.569 55.763C204.537 52.7943 208.625 51.31 213.833 51.31C217.337 51.31 220.305 51.9427 222.739 53.208C225.172 54.4733 226.973 56.0307 228.141 57.88C229.357 59.7293 230.014 61.5787 230.112 63.428C230.16 63.9147 230.014 64.304 229.674 64.596C229.333 64.888 228.919 65.034 228.433 65.034H224.929C224.442 65.034 224.077 64.9367 223.834 64.742C223.59 64.5473 223.347 64.158 223.104 63.574C222.276 61.238 221.108 59.5833 219.6 58.61C218.091 57.588 216.193 57.077 213.906 57.077C210.888 57.077 208.479 58.026 206.679 59.924C204.927 61.7733 203.978 64.6203 203.832 68.465L203.759 71.093L203.832 73.575C203.978 77.4683 204.927 80.3397 206.679 82.189C208.431 84.0383 210.84 84.963 213.906 84.963C216.193 84.963 218.091 84.4763 219.6 83.503C221.108 82.481 222.276 80.802 223.104 78.466C223.347 77.882 223.59 77.4927 223.834 77.298C224.077 77.0547 224.442 76.933 224.929 76.933H228.433C228.919 76.933 229.333 77.1033 229.674 77.444C230.014 77.736 230.16 78.1253 230.112 78.612C230.014 80.4127 229.357 82.262 228.141 84.16C226.973 86.0093 225.172 87.5667 222.739 88.832C220.354 90.0973 217.385 90.73 213.833 90.73ZM249.366 90.73C246.981 90.73 244.767 90.2433 242.723 89.27C240.679 88.2967 239.049 86.9827 237.832 85.328C236.664 83.6247 236.08 81.751 236.08 79.707C236.08 76.495 237.394 73.867 240.022 71.823C242.699 69.7303 246.3 68.3677 250.826 67.735L261.703 66.202V64.085C261.703 59.121 258.856 56.639 253.162 56.639C251.021 56.639 249.269 57.1013 247.906 58.026C246.543 58.902 245.521 59.9483 244.84 61.165C244.694 61.603 244.499 61.9193 244.256 62.114C244.061 62.3087 243.769 62.406 243.38 62.406H240.241C239.803 62.406 239.414 62.26 239.073 61.968C238.781 61.6273 238.635 61.238 238.635 60.8C238.684 59.632 239.219 58.318 240.241 56.858C241.312 55.3493 242.942 54.0597 245.132 52.989C247.322 51.8697 250.023 51.31 253.235 51.31C258.686 51.31 262.603 52.5997 264.988 55.179C267.373 57.7097 268.565 60.873 268.565 64.669V88.321C268.565 88.8077 268.395 89.2213 268.054 89.562C267.762 89.854 267.373 90 266.886 90H263.528C263.041 90 262.628 89.854 262.287 89.562C261.995 89.2213 261.849 88.8077 261.849 88.321V85.182C260.778 86.7393 259.221 88.0533 257.177 89.124C255.133 90.1947 252.529 90.73 249.366 90.73ZM250.899 85.255C254.062 85.255 256.642 84.233 258.637 82.189C260.681 80.0963 261.703 77.1033 261.703 73.21V71.166L253.235 72.407C249.78 72.8937 247.176 73.721 245.424 74.889C243.672 76.0083 242.796 77.444 242.796 79.196C242.796 81.1427 243.599 82.6513 245.205 83.722C246.811 84.744 248.709 85.255 250.899 85.255ZM292.929 90.73C287.868 90.73 284.048 89.0753 281.468 85.766C278.889 82.4567 277.526 78.2713 277.38 73.21L277.307 71.02L277.38 68.83C277.526 63.8173 278.889 59.6563 281.468 56.347C284.048 52.989 287.868 51.31 292.929 51.31C297.942 51.31 301.884 53.0863 304.755 56.639V39.849C304.755 39.3623 304.901 38.973 305.193 38.681C305.534 38.3403 305.948 38.17 306.434 38.17H309.938C310.425 38.17 310.814 38.3403 311.106 38.681C311.447 38.973 311.617 39.3623 311.617 39.849V88.321C311.617 88.8077 311.447 89.2213 311.106 89.562C310.814 89.854 310.425 90 309.938 90H306.653C306.167 90 305.753 89.854 305.412 89.562C305.12 89.2213 304.974 88.8077 304.974 88.321V85.255C302.152 88.905 298.137 90.73 292.929 90.73ZM294.462 84.817C297.82 84.817 300.327 83.722 301.981 81.532C303.685 79.2933 304.609 76.641 304.755 73.575C304.804 73.0397 304.828 72.115 304.828 70.801C304.828 69.4383 304.804 68.4893 304.755 67.954C304.658 65.0827 303.733 62.5763 301.981 60.435C300.229 58.2937 297.723 57.223 294.462 57.223C291.007 57.223 288.476 58.2937 286.87 60.435C285.313 62.5763 284.461 65.399 284.315 68.903L284.242 71.02C284.242 80.218 287.649 84.817 294.462 84.817ZM337.658 90.73C332.646 90.73 328.631 89.197 325.613 86.131C322.645 83.0163 321.014 78.7823 320.722 73.429L320.649 70.947L320.722 68.538C321.063 63.282 322.718 59.0967 325.686 55.982C328.704 52.8673 332.67 51.31 337.585 51.31C342.987 51.31 347.173 53.0377 350.141 56.493C353.11 59.8997 354.594 64.523 354.594 70.363V71.604C354.594 72.0907 354.424 72.5043 354.083 72.845C353.791 73.137 353.402 73.283 352.915 73.283H327.657V73.94C327.803 77.1033 328.752 79.8043 330.504 82.043C332.305 84.233 334.665 85.328 337.585 85.328C339.824 85.328 341.649 84.89 343.06 84.014C344.52 83.0893 345.591 82.1403 346.272 81.167C346.71 80.583 347.027 80.2423 347.221 80.145C347.465 79.999 347.878 79.926 348.462 79.926H352.039C352.477 79.926 352.842 80.0477 353.134 80.291C353.426 80.5343 353.572 80.875 353.572 81.313C353.572 82.3837 352.891 83.6733 351.528 85.182C350.214 86.6907 348.341 88.0047 345.907 89.124C343.523 90.1947 340.773 90.73 337.658 90.73ZM347.659 68.246V68.027C347.659 64.669 346.735 61.9437 344.885 59.851C343.085 57.7097 340.651 56.639 337.585 56.639C334.519 56.639 332.086 57.7097 330.285 59.851C328.533 61.9437 327.657 64.669 327.657 68.027V68.246H347.659ZM365.002 90C364.515 90 364.102 89.854 363.761 89.562C363.469 89.2213 363.323 88.8077 363.323 88.321V53.719C363.323 53.2323 363.469 52.843 363.761 52.551C364.102 52.2103 364.515 52.04 365.002 52.04H368.287C368.774 52.04 369.163 52.2103 369.455 52.551C369.796 52.843 369.966 53.2323 369.966 53.719V56.274C372.497 52.9647 376.025 51.31 380.551 51.31C385.953 51.31 389.773 53.5487 392.012 58.026C393.18 55.982 394.835 54.3517 396.976 53.135C399.117 51.9183 401.526 51.31 404.203 51.31C408.194 51.31 411.454 52.6727 413.985 55.398C416.516 58.1233 417.781 62.0653 417.781 67.224V88.321C417.781 88.8077 417.611 89.2213 417.27 89.562C416.978 89.854 416.589 90 416.102 90H412.671C412.184 90 411.771 89.854 411.43 89.562C411.138 89.2213 410.992 88.8077 410.992 88.321V67.881C410.992 64.085 410.189 61.3597 408.583 59.705C407.026 58.0503 404.957 57.223 402.378 57.223C400.091 57.223 398.12 58.0747 396.465 59.778C394.81 61.4327 393.983 64.1337 393.983 67.881V88.321C393.983 88.8077 393.813 89.2213 393.472 89.562C393.18 89.854 392.791 90 392.304 90H388.873C388.386 90 387.973 89.854 387.632 89.562C387.34 89.2213 387.194 88.8077 387.194 88.321V67.881C387.194 64.085 386.367 61.3597 384.712 59.705C383.106 58.0503 381.062 57.223 378.58 57.223C376.293 57.223 374.322 58.0747 372.667 59.778C371.012 61.4327 370.185 64.1093 370.185 67.808V88.321C370.185 88.8077 370.015 89.2213 369.674 89.562C369.382 89.854 368.993 90 368.506 90H365.002ZM433.698 103.87C433.309 103.87 432.968 103.724 432.676 103.432C432.384 103.14 432.238 102.799 432.238 102.41C432.238 102.069 432.36 101.631 432.603 101.096L438.224 87.737L424.281 54.814C424.038 54.1813 423.916 53.7677 423.916 53.573C423.916 53.135 424.062 52.77 424.354 52.478C424.646 52.186 425.011 52.04 425.449 52.04H429.026C429.805 52.04 430.389 52.4537 430.778 53.281L441.874 79.853L453.262 53.281C453.652 52.4537 454.26 52.04 455.087 52.04H458.518C458.956 52.04 459.321 52.186 459.613 52.478C459.905 52.77 460.051 53.1107 460.051 53.5C460.051 53.646 459.93 54.084 459.686 54.814L438.954 102.629C438.565 103.456 437.957 103.87 437.129 103.87H433.698Z" fill="white"/>
</svg>
