<svg width="90" height="90" viewBox="0 0 90 90" fill="none" xmlns="http://www.w3.org/2000/svg">
<path d="M41.462 38.864L44.101 43.373C44.503 44.061 45.497 44.061 45.9 43.373L48.539 38.864C48.784 38.445 48.708 37.913 48.355 37.58L45.716 35.091C45.315 34.712 44.688 34.712 44.286 35.091L41.647 37.58C41.293 37.912 41.217 38.445 41.462 38.864Z" fill="#7D4CDB"/>
<path d="M60.7 19.202C54.725 19.202 49.881 24.046 49.881 30.021C49.881 35.996 54.725 40.84 60.7 40.84C66.675 40.84 71.519 35.996 71.519 30.021C71.519 24.046 66.675 19.202 60.7 19.202ZM68.804 30.02C68.804 34.488 65.168 38.124 60.7 38.124C56.232 38.124 52.596 34.488 52.596 30.02C52.596 29.212 53.251 28.556 54.06 28.556C54.868 28.556 55.524 29.211 55.524 30.02C55.524 32.874 57.846 35.196 60.7 35.196C63.554 35.196 65.876 32.874 65.876 30.02C65.876 29.212 66.531 28.556 67.34 28.556C68.149 28.557 68.804 29.212 68.804 30.02Z" fill="#7D4CDB"/>
<path d="M29.3 19.202C23.325 19.202 18.481 24.046 18.481 30.021C18.481 35.996 23.325 40.84 29.3 40.84C35.275 40.84 40.119 35.996 40.119 30.021C40.119 24.046 35.275 19.202 29.3 19.202ZM37.404 30.02C37.404 34.488 33.768 38.124 29.3 38.124C24.832 38.124 21.197 34.488 21.197 30.02C21.197 29.212 21.852 28.556 22.661 28.556C23.47 28.556 24.125 29.211 24.125 30.02C24.125 32.874 26.447 35.196 29.3 35.196C32.154 35.196 34.476 32.874 34.476 30.02C34.476 29.212 35.131 28.556 35.94 28.556C36.748 28.557 37.404 29.212 37.404 30.02Z" fill="#7D4CDB"/>
<path d="M45.962 0H44.039C24.919 0 9.419 15.5 9.419 34.62V47.386C9.418 70.921 28.497 90 52.032 90H72.976C73.324 90 73.452 89.542 73.152 89.366C71.982 88.677 70.879 87.886 69.855 87.004C65.032 82.851 61.968 76.708 61.968 69.859C61.968 59.829 68.531 51.307 77.586 48.348C78.47 48.059 79.377 47.825 80.305 47.646C80.466 47.615 80.582 47.477 80.582 47.313V34.62C80.582 15.5 65.082 0 45.962 0ZM62.83 45.824H28.413V45.779C19.771 45.298 12.976 37.895 13.528 29.013C14.01 21.251 20.292 14.864 28.046 14.266C35.561 13.686 42.069 18.368 44.287 25.014C44.518 25.706 45.483 25.705 45.714 25.013C47.82 18.702 53.795 14.163 60.827 14.218C68.811 14.28 75.652 20.493 76.427 28.44C77.273 37.118 71.052 44.714 62.83 45.824Z" fill="#7D4CDB"/>
<path d="M65.962 69.859C65.962 77.547 70.644 84.161 77.306 87.004C78.023 87.31 78.765 87.568 79.526 87.781C80.058 87.93 80.581 87.509 80.581 86.957V52.763C80.581 52.191 80.03 51.795 79.48 51.952C78.833 52.137 78.201 52.355 77.585 52.607C70.778 55.382 65.962 62.065 65.962 69.859Z" fill="#7D4CDB"/>
</svg>
